<svg xmlns="http://www.w3.org/2000/svg" version="1.1" xmlns:xlink="http://www.w3.org/1999/xlink" width="75" height="75"><svg width="75" height="75" viewBox="0 0 75 75" fill="currentColor">
  <path d="M36.5,24.55066a17.36807,17.36807,0,0,0-8.45673,2.74707L36.5,12.71729Zm0,2V57.44934a15.48042,15.48042,0,0,1,0-30.89868Zm2,0a15.48042,15.48042,0,0,1,0,30.89868Zm0-2V12.71729l8.45673,14.58044A17.36807,17.36807,0,0,0,38.5,24.55066ZM20.04633,41.08551C20.03046,41.39032,20,41.69128,20,42A17.5164,17.5164,0,0,0,30.44073,58H10.23584ZM44.55927,58A17.5164,17.5164,0,0,0,55,42c0-.30872-.03046-.60968-.04633-.91449l8.93948,15.41277A1,1,0,0,1,63.02813,58Z"></path>
</svg><style>@media (prefers-color-scheme: light) { :root { filter: none; } }
@media (prefers-color-scheme: dark) { :root { filter: none; } }
</style></svg>